# xmcd
#
# Track frame offsets:
# 150
# 8855
# 21409
# 34512
# 47890
# 60921
# 72184
# 84787
# 95377
# 106391
# 119819
# 132656
# 143891
# 155468
# 165576
# 176739
# 186519
# 200424
# 215123
# 227153
# 238984
# 251340
# 266161
# 281276
#
# Disc length: 3911 seconds
#
#
# Revision: 0
# Processed by: cddbd v1.5.1PL2 Copyright (c) Steve Scherf et al.
# Submitted via: FreeRIP 2.945 
#
DISCID=610f4518
DTITLE=Gene Pitney - the story
DYEAR=1900
DGENRE=Country
TTITLE0=(I Wanna) Love My Life Away
TTITLE1=Every Breath I Take
TTITLE2=Town Without Pity
TTITLE3=(The Man Who Shot) Liberty Valance
TTITLE4=Only Love Can Break A Heart
TTITLE5=If I Didn앖 Have A Dime (To Play The Jukebox)
TTITLE6=Half Heaven - Half Heartache
TTITLE7=Mecca
TTITLE8=True Love Never Runs Smooth
TTITLE9=24 Hours From Tulsa
TTITLE10=That Girl Belongs To Yesterday
TTITLE11=Yesterday압 Hero
TTITLE12=It Hurts To Be In Love
TTITLE13=I앐 Gonna Be Strong
TTITLE14=I Must Be Seeing Things
TTITLE15=I았e Got Five Dollars And It압 Saturday Night
TTITLE16=Last Chance To Turn Around
TTITLE17=Looking Through The Eyes Of Love
TTITLE18=Princess In Rags
TTITLE19=Backstage (I앐 Lonely)
TTITLE20=Just One Smile
TTITLE21=She압 A Heartbreaker
TTITLE22=Billy Youre My Friend
TTITLE23=She Lets Her Hair Down (Early In The Morning)
EXTD=
EXTT0=
EXTT1=
EXTT2=
EXTT3=
EXTT4=
EXTT5=
EXTT6=
EXTT7=
EXTT8=
EXTT9=
EXTT10=
EXTT11=
EXTT12=
EXTT13=
EXTT14=
EXTT15=
EXTT16=
EXTT17=
EXTT18=
EXTT19=
EXTT20=
EXTT21=
EXTT22=
EXTT23=
PLAYORDER=
